HIERARCHY
ROOT hip
{
  OFFSET 0 90.174 2.4664
  CHANNELS 6 Xposition Yposition Zposition Zrotation Xrotation Yrotation
  JOINT abdomen
  {
    OFFSET 0 -1.186 -1.5018
    CHANNELS 6 Xposition Yposition Zposition Zrotation Xrotation Yrotation
    JOINT abdomen2
    {
      OFFSET 0 9.964 0.2134
      CHANNELS 6 Xposition Yposition Zposition Zrotation Xrotation Yrotation
      JOINT chest
      {
        OFFSET 0 13.134 -3.2573
        CHANNELS 6 Xposition Yposition Zposition Zrotation Xrotation Yrotation
        JOINT neck
        {
          OFFSET 0 20.686 -1.6905
          CHANNELS 6 Xposition Yposition Zposition Zrotation Xrotation Yrotation
          JOINT head
          {
            OFFSET 0 7.238 -0.1237
            CHANNELS 6 Xposition Yposition Zposition Zrotation Xrotation Yrotation
            End Site
            {
              OFFSET 0 0 0
            }
          }
        }
        JOINT lCollar
        {
          OFFSET 1.7069 20.075 5.0056
          CHANNELS 6 Xposition Yposition Zposition Zrotation Xrotation Yrotation
          JOINT lShldr
          {
            OFFSET 13.6458 -0.047 -4.849
            CHANNELS 6 Xposition Yposition Zposition Zrotation Xrotation Yrotation
            JOINT lForeArm
            {
              OFFSET 28.3255 -0.9759 2.2888
              CHANNELS 6 Xposition Yposition Zposition Zrotation Xrotation Yrotation
              JOINT lHand
              {
                OFFSET 22.1583 -0.53 10.8316
                CHANNELS 6 Xposition Yposition Zposition Zrotation Xrotation Yrotation
                JOINT lThumb1
                {
                  OFFSET 0.786 0.112 2.5817
                  CHANNELS 6 Xposition Yposition Zposition Zrotation Xrotation Yrotation
                  JOINT lThumb2
                  {
                    OFFSET 0.3601 -0.878 4.2331
                    CHANNELS 6 Xposition Yposition Zposition Zrotation Xrotation Yrotation
                    JOINT lThumb2_End
                    {
                      OFFSET 1.8127 -1.216 2.2227
                      CHANNELS 6 Xposition Yposition Zposition Zrotation Xrotation Yrotation
                      End Site
                      {
                        OFFSET 0.0181 -0.0122 0.0222
                      }
                    }
                  }
                }
                JOINT lCarpal1
                {
                  OFFSET 0.9571 1.114 1.7695
                  CHANNELS 6 Xposition Yposition Zposition Zrotation Xrotation Yrotation
                  JOINT lIndex1
                  {
                    OFFSET 4.1246 0.487 4.1451
                    CHANNELS 6 Xposition Yposition Zposition Zrotation Xrotation Yrotation
                    JOINT lIndex2
                    {
                      OFFSET 3.4052 -1.454 2.7682
                      CHANNELS 6 Xposition Yposition Zposition Zrotation Xrotation Yrotation
                      JOINT lIndex2_End
                      {
                        OFFSET 1.4531 -1.795 1.2713
                        CHANNELS 6 Xposition Yposition Zposition Zrotation Xrotation Yrotation
                        End Site
                        {
                          OFFSET 0.0145 -0.0179 0.0127
                        }
                      }
                    }
                  }
                  JOINT lMid1
                  {
                    OFFSET 5.6954 0.21 2.1184
                    CHANNELS 6 Xposition Yposition Zposition Zrotation Xrotation Yrotation
                    JOINT lMid2
                    {
                      OFFSET 3.9766 -1.54 2.3863
                      CHANNELS 6 Xposition Yposition Zposition Zrotation Xrotation Yrotation
                      JOINT lMid2_End
                      {
                        OFFSET 1.4042 -1.926 1.125
                        CHANNELS 6 Xposition Yposition Zposition Zrotation Xrotation Yrotation
                        End Site
                        {
                          OFFSET 0.014 -0.0193 0.0113
                        }
                      }
                    }
                  }
                }
                JOINT lCarpal2
                {
                  OFFSET 2.0956 0.66 -0.3894
                  CHANNELS 6 Xposition Yposition Zposition Zrotation Xrotation Yrotation
                  JOINT lRing1
                  {
                    OFFSET 5.0395 -0.09 2.4971
                    CHANNELS 6 Xposition Yposition Zposition Zrotation Xrotation Yrotation
                    JOINT lRing2
                    {
                      OFFSET 3.7921 -1.552 1.4806
                      CHANNELS 6 Xposition Yposition Zposition Zrotation Xrotation Yrotation
                      JOINT lRing2_End
                      {
                        OFFSET 1.4655 -1.808 0.9609
                        CHANNELS 6 Xposition Yposition Zposition Zrotation Xrotation Yrotation
                        End Site
                        {
                          OFFSET 0.0147 -0.0181 0.0096
                        }
                      }
                    }
                  }
                  JOINT lPinky1
                  {
                    OFFSET 4.9141 -1.269 0.3591
                    CHANNELS 6 Xposition Yposition Zposition Zrotation Xrotation Yrotation
                    JOINT lPinky2
                    {
                      OFFSET 3.1477 -1.685 0.8462
                      CHANNELS 6 Xposition Yposition Zposition Zrotation Xrotation Yrotation
                      JOINT lPinky2_End
                      {
                        OFFSET 0.8055 -1.585 0.7955
                        CHANNELS 6 Xposition Yposition Zposition Zrotation Xrotation Yrotation
                        End Site
                        {
                          OFFSET 0.0081 -0.0158 0.008
                        }
                      }
                    }
                  }
                }
              }
            }
          }
        }
        JOINT rCollar
        {
          OFFSET -1.7069 20.075 5.0056
          CHANNELS 6 Xposition Yposition Zposition Zrotation Xrotation Yrotation
          JOINT rShldr
          {
            OFFSET -13.6458 -0.047 -4.849
            CHANNELS 6 Xposition Yposition Zposition Zrotation Xrotation Yrotation
            JOINT rForeArm
            {
              OFFSET -28.3255 -0.9759 2.2888
              CHANNELS 6 Xposition Yposition Zposition Zrotation Xrotation Yrotation
              JOINT rHand
              {
                OFFSET -22.1583 -0.53 10.8316
                CHANNELS 6 Xposition Yposition Zposition Zrotation Xrotation Yrotation
                JOINT rThumb1
                {
                  OFFSET -0.786 0.112 2.5817
                  CHANNELS 6 Xposition Yposition Zposition Zrotation Xrotation Yrotation
                  JOINT rThumb2
                  {
                    OFFSET -0.3601 -0.878 4.2331
                    CHANNELS 6 Xposition Yposition Zposition Zrotation Xrotation Yrotation
                    JOINT rThumb2_End
                    {
                      OFFSET -1.8127 -1.216 2.2227
                      CHANNELS 6 Xposition Yposition Zposition Zrotation Xrotation Yrotation
                      End Site
                      {
                        OFFSET -0.0181 -0.0122 0.0222
                      }
                    }
                  }
                }
                JOINT rCarpal1
                {
                  OFFSET -0.9571 1.114 1.7695
                  CHANNELS 6 Xposition Yposition Zposition Zrotation Xrotation Yrotation
                  JOINT rIndex1
                  {
                    OFFSET -4.1246 0.487 4.1451
                    CHANNELS 6 Xposition Yposition Zposition Zrotation Xrotation Yrotation
                    JOINT rIndex2
                    {
                      OFFSET -3.4052 -1.454 2.7682
                      CHANNELS 6 Xposition Yposition Zposition Zrotation Xrotation Yrotation
                      JOINT rIndex2_End
                      {
                        OFFSET -1.4531 -1.795 1.2713
                        CHANNELS 6 Xposition Yposition Zposition Zrotation Xrotation Yrotation
                        End Site
                        {
                          OFFSET -0.0145 -0.018 0.0127
                        }
                      }
                    }
                  }
                  JOINT rMid1
                  {
                    OFFSET -5.6954 0.21 2.1184
                    CHANNELS 6 Xposition Yposition Zposition Zrotation Xrotation Yrotation
                    JOINT rMid2
                    {
                      OFFSET -3.9766 -1.54 2.3863
                      CHANNELS 6 Xposition Yposition Zposition Zrotation Xrotation Yrotation
                      JOINT rMid2_End
                      {
                        OFFSET -1.4042 -1.926 1.125
                        CHANNELS 6 Xposition Yposition Zposition Zrotation Xrotation Yrotation
                        End Site
                        {
                          OFFSET -0.014 -0.0193 0.0113
                        }
                      }
                    }
                  }
                }
                JOINT rCarpal2
                {
                  OFFSET -2.0956 0.66 -0.3894
                  CHANNELS 6 Xposition Yposition Zposition Zrotation Xrotation Yrotation
                  JOINT rRing1
                  {
                    OFFSET -5.0395 -0.09 2.4971
                    CHANNELS 6 Xposition Yposition Zposition Zrotation Xrotation Yrotation
                    JOINT rRing2
                    {
                      OFFSET -3.7921 -1.552 1.4806
                      CHANNELS 6 Xposition Yposition Zposition Zrotation Xrotation Yrotation
                      JOINT rRing2_End
                      {
                        OFFSET -1.4655 -1.808 0.9609
                        CHANNELS 6 Xposition Yposition Zposition Zrotation Xrotation Yrotation
                        End Site
                        {
                          OFFSET -0.0147 -0.0181 0.0096
                        }
                      }
                    }
                  }
                  JOINT rPinky1
                  {
                    OFFSET -4.9141 -1.269 0.3592
                    CHANNELS 6 Xposition Yposition Zposition Zrotation Xrotation Yrotation
                    JOINT rPinky2
                    {
                      OFFSET -3.1477 -1.685 0.8462
                      CHANNELS 6 Xposition Yposition Zposition Zrotation Xrotation Yrotation
                      JOINT rPinky2_End
                      {
                        OFFSET -0.8055 -1.585 0.7955
                        CHANNELS 6 Xposition Yposition Zposition Zrotation Xrotation Yrotation
                        End Site
                        {
                          OFFSET -0.0081 -0.0158 0.008
                        }
                      }
                    }
                  }
                }
              }
            }
          }
        }
      }
    }
  }
  JOINT lThigh
  {
    OFFSET 8.367 -8.2066 0.5982
    CHANNELS 6 Xposition Yposition Zposition Zrotation Xrotation Yrotation
    JOINT lShin
    {
      OFFSET 2.1923 -43.463 -0.4932
      CHANNELS 6 Xposition Yposition Zposition Zrotation Xrotation Yrotation
      JOINT lFoot
      {
        OFFSET 0.7333 -45.8593 -2.6451
        CHANNELS 6 Xposition Yposition Zposition Zrotation Xrotation Yrotation
        End Site
        {
          OFFSET 2.6618 -4.2699 12.3931
        }
      }
    }
  }
  JOINT rThigh
  {
    OFFSET -8.367 -8.2066 0.5982
    CHANNELS 6 Xposition Yposition Zposition Zrotation Xrotation Yrotation
    JOINT rShin
    {
      OFFSET -2.1923 -43.463 -0.4931
      CHANNELS 6 Xposition Yposition Zposition Zrotation Xrotation Yrotation
      JOINT rFoot
      {
        OFFSET -0.7333 -45.8593 -2.6451
        CHANNELS 6 Xposition Yposition Zposition Zrotation Xrotation Yrotation
        End Site
        {
          OFFSET -2.6618 -4.2699 12.3931
        }
      }
    }
  }
}
MOTION
Frames:	4
Frame Time:	0.0333333
-10.3238 6.03692 8.42608 92.0831 0.254834 -179.705 8.88178e-016 -1.186 -1.5018 0.455823 0.893851 -0.330873 8.88178e-016 9.964 0.2134 0.916958 1.78503 -0.668971 0 13.134 -3.2573 0.916943 1.78503 -0.668971 -8.88178e-016 20.686 -1.6905 9.03904 16.7035 -2.70333 7.77156e-016 7.238 -0.1237 -1.68995e-006 15.4504 -5.90704e-007 1.7069 20.075 5.0056 -10.6838 -9.0511 -12.8537 13.6458 -0.047 -4.849 -56.1544 13.8352 -23.0919 28.3255 -0.9759 2.2888 -7.24319 3.13297 -49.6614 22.1583 -0.53 10.8316 -51.5181 21.7378 -0.762885 0.786 0.112 2.5817 1.59028e-015 3.18055e-015 -3.57812e-015 0.3601 -0.878 4.2331 -3.53113e-031 -3.18055e-015 -6.36111e-015 1.8127 -1.216 2.2227 -3.72414e-006 -3.14302e-006 -4.44126e-006 0.9571 1.114 1.7695 1.59028e-015 3.18055e-015 -0 4.1246 0.487 4.1451 -3.53113e-031 -3.18055e-015 -6.36111e-015 3.4052 -1.454 2.7682 3.75182e-031 3.18055e-015 -6.75868e-015 1.4531 -1.795 1.2713 -3.72414e-006 -3.14302e-006 -4.44126e-006 5.6954 0.21 2.1184 -3.53113e-031 -3.18055e-015 -6.36111e-015 3.9766 -1.54 2.3863 3.75182e-031 3.18055e-015 -6.75868e-015 1.4042 -1.926 1.125 -3.72414e-006 -3.14302e-006 -4.44126e-006 2.0956 0.66 -0.3894 1.59028e-015 3.18055e-015 -0 5.0395 -0.09 2.4971 -3.53113e-031 -3.18055e-015 -6.36111e-015 3.7921 -1.552 1.4806 3.75182e-031 3.18055e-015 -6.75868e-015 1.4655 -1.808 0.9609 -3.72414e-006 -3.14302e-006 -4.44126e-006 4.9141 -1.269 0.3591 -3.53113e-031 -3.18055e-015 -6.36111e-015 3.1477 -1.685 0.8462 3.75182e-031 3.18055e-015 -6.75868e-015 0.8055 -1.585 0.7955 -3.72414e-006 -3.14302e-006 -4.44126e-006 -1.7069 20.075 5.0056 -14.8277 -13.1076 -14.9029 -13.6458 -0.047 -4.849 53.2392 8.44467 48.094 -28.3255 -0.9759 2.2888 55.795 2.82446 52.9988 -22.1583 -0.53 10.8316 46.1657 5.42539 6.7096 -0.786 0.112 2.5817 2.20695e-032 -3.18055e-015 3.97569e-016 -0.3601 -0.878 4.2331 2.20695e-032 -1.59028e-015 7.95139e-016 -1.8127 -1.216 2.2227 3.31043e-032 -3.18055e-015 5.96354e-016 -0.9571 1.114 1.7695 -0 -3.18055e-015 -0 -4.1246 0.487 4.1451 7.1726e-031 -3.18055e-015 1.2921e-014 -3.4052 -1.454 2.7682 -1.59028e-015 -1.59028e-015 -1.98785e-016 -1.4531 -1.795 1.2713 -3.18055e-015 -1.59028e-015 5.96354e-016 -5.6954 0.21 2.1184 7.1726e-031 -3.18055e-015 1.2921e-014 -3.9766 -1.54 2.3863 -1.59028e-015 -1.59028e-015 -1.98785e-016 -1.4042 -1.926 1.125 -3.18055e-015 -1.59028e-015 5.96354e-016 -2.0956 0.66 -0.3894 -0 -3.18055e-015 -0 -5.0395 -0.09 2.4971 7.1726e-031 -3.18055e-015 1.2921e-014 -3.7921 -1.552 1.4806 -1.59028e-015 -1.59028e-015 -1.98785e-016 -1.4655 -1.808 0.9609 -3.18055e-015 -1.59028e-015 5.96354e-016 -4.9141 -1.269 0.3592 7.1726e-031 -3.18055e-015 1.2921e-014 -3.1477 -1.685 0.8462 -1.59028e-015 -1.59028e-015 -1.98785e-016 -0.8055 -1.585 0.7955 -3.18055e-015 -1.59028e-015 5.96354e-016 8.367 -8.2066 0.5982 6.80978 -3.91594 8.74263 2.1923 -43.463 -0.4932 -1.50028 51.1157 -0.172925 0.7333 -45.8593 -2.6451 4.07925 43.2029 -0.403217 -8.367 -8.2066 0.5982 -26.3558 -34.8257 -17.993 -2.1923 -43.463 -0.4931 83.1362 28.2397 -94.9598 -0.7333 -45.8593 -2.6451 6.11308 26.4423 2.83196 
-10.2851 6.15122 8.72915 92.2127 0.280786 -179.617 0 -1.186 -1.5018 0.453765 1.08234 -0.335373 1.77636e-015 9.964 0.2134 0.914081 2.16197 -0.679492 0 13.134 -3.2573 0.914097 2.16197 -0.679491 0 20.686 -1.6905 8.52199 15.3442 -2.45111 -7.77156e-016 7.238 -0.1237 9.18506e-006 14.755 9.90474e-007 1.7069 20.075 5.0056 -10.6348 -9.87865 -12.256 13.6458 -0.047 -4.849 -56.2996 14.2516 -23.7956 28.3255 -0.9759 2.2888 -8.23484 4.26507 -46.8365 22.1583 -0.53 10.8316 -50.5071 21.8968 -1.22102 0.786 0.112 2.5817 2.20695e-032 -3.18055e-015 3.97569e-016 0.3601 -0.878 4.2331 9.93129e-032 -1.59028e-015 3.57812e-015 1.8127 -1.216 2.2227 -2.86904e-031 1.59028e-015 1.03368e-014 0.9571 1.114 1.7695 1.59028e-015 -3.18055e-015 -2.78299e-015 4.1246 0.487 4.1451 1.98626e-031 -1.59028e-015 7.15625e-015 3.4052 -1.454 2.7682 -0 0 6.75868e-015 1.4531 -1.795 1.2713 -1.59028e-015 3.18055e-015 6.36111e-015 5.6954 0.21 2.1184 1.98626e-031 -1.59028e-015 7.15625e-015 3.9766 -1.54 2.3863 -0 0 6.75868e-015 1.4042 -1.926 1.125 -1.59028e-015 3.18055e-015 6.36111e-015 2.0956 0.66 -0.3894 1.59028e-015 -3.18055e-015 -2.78299e-015 5.0395 -0.09 2.4971 1.98626e-031 -1.59028e-015 7.15625e-015 3.7921 -1.552 1.4806 -0 0 6.75868e-015 1.4655 -1.808 0.9609 -1.59028e-015 3.18055e-015 6.36111e-015 4.9141 -1.269 0.3591 1.98626e-031 -1.59028e-015 7.15625e-015 3.1477 -1.685 0.8462 -0 0 6.75868e-015 0.8055 -1.585 0.7955 -1.59028e-015 3.18055e-015 6.36111e-015 -1.7069 20.075 5.0056 -14.7274 -13.7968 -13.907 -13.6458 -0.047 -4.849 53.097 8.19134 48.166 -28.3255 -0.9759 2.2888 55.6888 2.43683 52.9005 -22.1583 -0.53 10.8316 45.6055 5.7344 6.63384 -0.786 0.112 2.5817 1.59028e-015 -1.59028e-015 3.97569e-016 -0.3601 -0.878 4.2331 1.21448e-006 -1.00606e-006 4.73217e-007 -1.8127 -1.216 2.2227 3.18055e-015 0 -1.19271e-015 -0.9571 1.114 1.7695 1.65521e-032 -1.59028e-015 5.96354e-016 -4.1246 0.487 4.1451 1.59028e-015 -3.18055e-015 1.25234e-014 -3.4052 -1.454 2.7682 1.21448e-006 -1.00606e-006 4.73217e-007 -1.4531 -1.795 1.2713 1.59028e-015 0 -1.98785e-016 -5.6954 0.21 2.1184 1.59028e-015 -3.18055e-015 1.25234e-014 -3.9766 -1.54 2.3863 1.21448e-006 -1.00606e-006 4.73217e-007 -1.4042 -1.926 1.125 1.59028e-015 0 -1.98785e-016 -2.0956 0.66 -0.3894 1.65521e-032 -1.59028e-015 5.96354e-016 -5.0395 -0.09 2.4971 1.59028e-015 -3.18055e-015 1.25234e-014 -3.7921 -1.552 1.4806 1.21448e-006 -1.00606e-006 4.73217e-007 -1.4655 -1.808 0.9609 1.59028e-015 0 -1.98785e-016 -4.9141 -1.269 0.3592 1.59028e-015 -3.18055e-015 1.25234e-014 -3.1477 -1.685 0.8462 1.21448e-006 -1.00606e-006 4.73217e-007 -0.8055 -1.585 0.7955 1.59028e-015 0 -1.98785e-016 8.367 -8.2066 0.5982 6.81388 -4.28527 8.77805 2.1923 -43.463 -0.4932 -1.43722 51.4585 -0.21132 0.7333 -45.8593 -2.6451 4.07555 43.2122 -0.401769 -8.367 -8.2066 0.5982 -26.3209 -35.0592 -18.0749 -2.1923 -43.463 -0.4931 83.1309 28.239 -94.9495 -0.7333 -45.8593 -2.6451 5.99682 26.4849 2.58213 
-10.2509 6.24745 9.0007 92.3597 0.310429 -179.518 0 -1.186 -1.5018 0.451913 1.25091 -0.339378 0 9.964 0.2134 0.911593 2.49907 -0.688865 0 13.134 -3.2573 0.911593 2.49907 -0.688865 -8.88178e-016 20.686 -1.6905 8.06584 14.1251 -2.23772 -2.22045e-016 7.238 -0.1237 -3.75982e-006 14.1335 6.18146e-006 1.7069 20.075 5.0056 -10.5839 -10.6182 -11.7193 13.6458 -0.047 -4.849 -56.4257 14.6259 -24.4246 28.3255 -0.9759 2.2888 -9.17824 5.21384 -44.2769 22.1583 -0.53 10.8316 -49.601 22.0324 -1.63398 0.786 0.112 2.5817 -1.59028e-015 0 -2.38542e-015 0.3601 -0.878 4.2331 -1.59028e-015 -1.59028e-015 1.98785e-016 1.8127 -1.216 2.2227 5.51738e-033 -1.59028e-015 1.98785e-016 0.9571 1.114 1.7695 -1.59028e-015 -1.59028e-015 -2.38542e-015 4.1246 0.487 4.1451 -1.59028e-015 1.59028e-015 3.57812e-015 3.4052 -1.454 2.7682 3.31043e-032 -1.59028e-015 1.19271e-015 1.4531 -1.795 1.2713 -1.59028e-015 0 7.95139e-016 5.6954 0.21 2.1184 -1.59028e-015 1.59028e-015 3.57812e-015 3.9766 -1.54 2.3863 3.31043e-032 -1.59028e-015 1.19271e-015 1.4042 -1.926 1.125 -1.59028e-015 0 7.95139e-016 2.0956 0.66 -0.3894 -1.59028e-015 -1.59028e-015 -2.38542e-015 5.0395 -0.09 2.4971 -1.59028e-015 1.59028e-015 3.57812e-015 3.7921 -1.552 1.4806 3.31043e-032 -1.59028e-015 1.19271e-015 1.4655 -1.808 0.9609 -1.59028e-015 0 7.95139e-016 4.9141 -1.269 0.3591 -1.59028e-015 1.59028e-015 3.57812e-015 3.1477 -1.685 0.8462 3.31043e-032 -1.59028e-015 1.19271e-015 0.8055 -1.585 0.7955 -1.59028e-015 0 7.95139e-016 -1.7069 20.075 5.0056 -14.6277 -14.4118 -13.0121 -13.6458 -0.047 -4.849 52.9703 7.96478 48.2296 -28.3255 -0.9759 2.2888 55.5934 2.09091 52.8114 -22.1583 -0.53 10.8316 45.105 6.01118 6.5689 -0.786 0.112 2.5817 5.00747e-006 2.55388e-006 -2.1954e-006 -0.3601 -0.878 4.2331 -4.31794e-007 -5.17215e-006 -7.89236e-006 -1.8127 -1.216 2.2227 3.90472e-006 2.46203e-006 4.32758e-006 -0.9571 1.114 1.7695 -2.20695e-032 1.59028e-015 7.95139e-016 -4.1246 0.487 4.1451 5.00747e-006 2.55388e-006 -2.1954e-006 -3.4052 -1.454 2.7682 -4.31794e-007 -5.17215e-006 -7.89236e-006 -1.4531 -1.795 1.2713 3.90472e-006 2.46203e-006 4.32758e-006 -5.6954 0.21 2.1184 5.00747e-006 2.55388e-006 -2.1954e-006 -3.9766 -1.54 2.3863 -4.31794e-007 -5.17215e-006 -7.89236e-006 -1.4042 -1.926 1.125 3.90472e-006 2.46203e-006 4.32758e-006 -2.0956 0.66 -0.3894 -2.20695e-032 1.59028e-015 7.95139e-016 -5.0395 -0.09 2.4971 5.00747e-006 2.55388e-006 -2.1954e-006 -3.7921 -1.552 1.4806 -4.31794e-007 -5.17215e-006 -7.89236e-006 -1.4655 -1.808 0.9609 3.90472e-006 2.46203e-006 4.32758e-006 -4.9141 -1.269 0.3592 5.00747e-006 2.55388e-006 -2.1954e-006 -3.1477 -1.685 0.8462 -4.31794e-007 -5.17215e-006 -7.89236e-006 -0.8055 -1.585 0.7955 3.90472e-006 2.46203e-006 4.32758e-006 8.367 -8.2066 0.5982 6.81816 -4.61804 8.80964 2.1923 -43.463 -0.4932 -1.38055 51.7694 -0.245834 0.7333 -45.8593 -2.6451 4.07241 43.2185 -0.400533 -8.367 -8.2066 0.5982 -26.2913 -35.2673 -18.1481 -2.1923 -43.463 -0.4931 83.1262 28.2383 -94.9397 -0.7333 -45.8593 -2.6451 5.89374 26.5246 2.35902 
-10.217 6.33659 9.27331 92.5445 0.348049 -179.393 0 -1.186 -1.5018 0.450073 1.41958 -0.343361 0 9.964 0.2134 0.909067 2.83639 -0.698192 0 13.134 -3.2573 0.909069 2.83639 -0.698192 0 20.686 -1.6905 7.61672 12.9018 -2.03525 -9.99201e-016 7.238 -0.1237 1.15289e-005 13.5117 -1.38428e-006 1.7069 20.075 5.0056 -10.5258 -11.3577 -11.1801 13.6458 -0.047 -4.849 -56.5477 15.0019 -25.0543 28.3255 -0.9759 2.2888 -10.1679 6.12388 -41.6912 22.1583 -0.53 10.8316 -48.6921 22.1621 -2.04998 0.786 0.112 2.5817 1.65521e-032 1.59028e-015 -5.96354e-016 0.3601 -0.878 4.2331 -1.59028e-015 -1.59028e-015 -5.96354e-016 1.8127 -1.216 2.2227 -3.18055e-015 0 -1.39149e-015 0.9571 1.114 1.7695 1.59028e-015 1.59028e-015 2.78299e-015 4.1246 0.487 4.1451 -3.18055e-015 0 1.21259e-014 3.4052 -1.454 2.7682 -1.59028e-015 -3.18055e-015 -7.95139e-016 1.4531 -1.795 1.2713 -1.15865e-031 -1.59028e-015 -4.17448e-015 5.6954 0.21 2.1184 -3.18055e-015 0 1.21259e-014 3.9766 -1.54 2.3863 -1.59028e-015 -3.18055e-015 -7.95139e-016 1.4042 -1.926 1.125 -1.15865e-031 -1.59028e-015 -4.17448e-015 2.0956 0.66 -0.3894 1.59028e-015 1.59028e-015 2.78299e-015 5.0395 -0.09 2.4971 -3.18055e-015 0 1.21259e-014 3.7921 -1.552 1.4806 -1.59028e-015 -3.18055e-015 -7.95139e-016 1.4655 -1.808 0.9609 -1.15865e-031 -1.59028e-015 -4.17448e-015 4.9141 -1.269 0.3591 -3.18055e-015 0 1.21259e-014 3.1477 -1.685 0.8462 -1.59028e-015 -3.18055e-015 -7.95139e-016 0.8055 -1.585 0.7955 -1.15865e-031 -1.59028e-015 -4.17448e-015 -1.7069 20.075 5.0056 -14.5176 -15.0259 -12.1123 -13.6458 -0.047 -4.849 52.844 7.73808 48.2926 -28.3255 -0.9759 2.2888 55.4975 1.7451 52.7217 -22.1583 -0.53 10.8316 44.6043 6.28865 6.50632 -0.786 0.112 2.5817 -6.06912e-032 1.59028e-015 2.18663e-015 -0.3601 -0.878 4.2331 1.59028e-015 4.77083e-015 1.78906e-015 -1.8127 -1.216 2.2227 -1.10348e-032 1.59028e-015 3.97569e-016 -0.9571 1.114 1.7695 -1.59028e-015 1.59028e-015 9.93923e-016 -4.1246 0.487 4.1451 1.59028e-015 4.77083e-015 1.59028e-015 -3.4052 -1.454 2.7682 -1.10348e-031 3.18055e-015 1.98785e-015 -1.4531 -1.795 1.2713 3.86217e-032 1.59028e-015 -1.39149e-015 -5.6954 0.21 2.1184 1.59028e-015 4.77083e-015 1.59028e-015 -3.9766 -1.54 2.3863 -1.10348e-031 3.18055e-015 1.98785e-015 -1.4042 -1.926 1.125 3.86217e-032 1.59028e-015 -1.39149e-015 -2.0956 0.66 -0.3894 -1.59028e-015 1.59028e-015 9.93923e-016 -5.0395 -0.09 2.4971 1.59028e-015 4.77083e-015 1.59028e-015 -3.7921 -1.552 1.4806 -1.10348e-031 3.18055e-015 1.98785e-015 -1.4655 -1.808 0.9609 3.86217e-032 1.59028e-015 -1.39149e-015 -4.9141 -1.269 0.3592 1.59028e-015 4.77083e-015 1.59028e-015 -3.1477 -1.685 0.8462 -1.10348e-031 3.18055e-015 1.98785e-015 -0.8055 -1.585 0.7955 3.86217e-032 1.59028e-015 -1.39149e-015 8.367 -8.2066 0.5982 6.82311 -4.95444 8.84122 2.1923 -43.463 -0.4932 -1.32361 52.0867 -0.280397 0.7333 -45.8593 -2.6451 4.06943 43.2222 -0.399274 -8.367 -8.2066 0.5982 -26.2638 -35.4747 -18.2214 -2.1923 -43.463 -0.4931 83.1218 28.2376 -94.9296 -0.7333 -45.8593 -2.6451 5.79147 26.5662 2.13614 
